<?xml version="1.0" standalone="no"?>
<!DOCTYPE svg PUBLIC "-//W3C//DTD SVG 20010904//EN"
 "http://www.w3.org/TR/2001/REC-SVG-20010904/DTD/svg10.dtd">
<svg version="1.0" xmlns="http://www.w3.org/2000/svg"
 width="512.000000pt" height="512.000000pt" viewBox="0 0 512.000000 512.000000"
 preserveAspectRatio="xMidYMid meet">

<g transform="translate(0.000000,512.000000) scale(0.100000,-0.100000)"
fill="#000000" stroke="none">
<path d="M1860 4899 c-377 -120 -736 -235 -797 -254 -135 -43 -158 -61 -148
-120 4 -22 9 -169 12 -327 l4 -288 74 0 75 0 0 260 c0 182 3 260 11 260 11 0
352 -56 399 -65 l25 -5 -3 -205 -3 -205 25 -25 25 -25 1005 0 1005 0 20 26
c20 25 21 39 21 229 0 202 0 203 23 208 12 3 137 24 277 48 279 47 300 55 300
118 0 42 -9 60 -39 75 -14 8 -316 106 -671 219 -852 271 -936 297 -946 296 -5
0 -317 -99 -694 -220z"/>
<path d="M1790 2033 c-416 -273 -397 -263 -605 -323 -229 -66 -314 -109 -416
-210 -121 -120 -185 -247 -208 -413 -6 -45 -11 -243 -11 -466 0 -452 2 -466
79 -543 85 -85 -79 -79 1957 -76 l1799 3 40 22 c47 25 95 74 121 123 18 32 19
68 22 445 3 439 -2 521 -42 636 -36 105 -82 175 -171 264 -107 107 -186 148
-430 220 -213 62 -161 34 -640 348 -137 90 -251 164 -252 163 -1 -1 -7 -53
-13 -116 -20 -208 -66 -374 -155 -555 -57 -117 -288 -480 -305 -480 -16 0
-248 364 -305 480 -90 183 -135 344 -155 555 -6 63 -12 115 -13 116 -1 0 -135
-86 -297 -193z"/>
</g>
</svg>
